HIERARCHY
ROOT Hips
{
	OFFSET 0.000000 0.000000 0.000000 
	CHANNELS 6 Xposition Yposition Zposition Yrotation Xrotation Zrotation
	JOINT Spine
	{
		OFFSET 0.000000 0.072080 0.012321 
		CHANNELS 3 Xrotation Yrotation Zrotation
		JOINT Spine1
		{
			OFFSET 0.000000 0.126984 -0.001294 
			CHANNELS 3 Xrotation Yrotation Zrotation
			JOINT Spine2
			{
				OFFSET 0.000000 0.106559 -0.010096 
				CHANNELS 3 Xrotation Yrotation Zrotation
				JOINT Neck
				{
					OFFSET 0.000000 0.108417 -0.034017 
					CHANNELS 3 Xrotation Yrotation Zrotation
					JOINT Neck1
					{
						OFFSET 0.000000 0.033906 0.007241 
						CHANNELS 3 Xrotation Yrotation Zrotation
						JOINT Head
						{
							OFFSET 0.000000 0.031458 0.006707 
							CHANNELS 3 Xrotation Yrotation Zrotation
							End Site
							{
								OFFSET 0.000000 0.179920 0.000962 
							}
						}
					}
				}
				JOINT LeftShoulder
				{
					OFFSET 0.048002 0.079586 -0.029634 
					CHANNELS 3 Zrotation Xrotation Yrotation
					JOINT LeftArm
					{
						OFFSET 0.096243 -0.008695 -0.014012 
						CHANNELS 3 Zrotation Xrotation Yrotation
						JOINT LeftForeArm
						{
							OFFSET 0.216305 0.000000 0.000000 
							CHANNELS 3 Xrotation Zrotation Yrotation
							JOINT LeftHand
							{
								OFFSET 0.217764 0.000000 0.000000 
								CHANNELS 3 Zrotation Yrotation Xrotation
								JOINT LeftHandThumb1
								{
									OFFSET 0.018582 -0.007835 0.020476 
									CHANNELS 3 Zrotation Xrotation Yrotation
									JOINT LeftHandThumb2
									{
										OFFSET 0.026269 -0.007835 0.022186 
										CHANNELS 3 Zrotation Xrotation Yrotation
										JOINT LeftHandThumb3
										{
											OFFSET 0.035170 -0.010504 0.017018 
											CHANNELS 3 Zrotation Xrotation Yrotation
											End Site
											{
												OFFSET 0.020312 -0.007813 0.007813 
											}
										}
									}
								}
								JOINT LeftHandMiddle1
								{
									OFFSET 0.081749 0.004803 0.003358 
									CHANNELS 3 Zrotation Xrotation Yrotation
									JOINT LeftHandMiddle2
									{
										OFFSET 0.045251 0.000000 0.000000 
										CHANNELS 3 Zrotation Xrotation Yrotation
										JOINT LeftHandMiddle3
										{
											OFFSET 0.029009 0.000000 0.000000 
											CHANNELS 3 Zrotation Xrotation Yrotation
											End Site
											{
												OFFSET 0.017969 0.000000 0.000000 
											}
										}
									}
								}
								JOINT LeftHandIndex1
								{
									OFFSET 0.081207 0.004803 0.021137 
									CHANNELS 3 Zrotation Xrotation Yrotation
									JOINT LeftHandIndex2
									{
										OFFSET 0.043354 0.000000 0.000000 
										CHANNELS 3 Zrotation Xrotation Yrotation
										JOINT LeftHandIndex3
										{
											OFFSET 0.026493 0.000000 0.000000 
											CHANNELS 3 Zrotation Xrotation Yrotation
											End Site
											{
												OFFSET 0.019531 0.000000 0.000000 
											}
										}
									}
								}
								JOINT LeftHandRing1
								{
									OFFSET 0.080666 0.002509 -0.014652 
									CHANNELS 3 Zrotation Xrotation Yrotation
									JOINT LeftHandRing2
									{
										OFFSET 0.042541 0.000000 0.000000 
										CHANNELS 3 Zrotation Xrotation Yrotation
										JOINT LeftHandRing3
										{
											OFFSET 0.029009 0.000000 0.000000 
											CHANNELS 3 Zrotation Xrotation Yrotation
											End Site
											{
												OFFSET 0.015625 0.000000 0.000000 
											}
										}
									}
								}
								JOINT LeftHandPinky1
								{
									OFFSET 0.078227 -0.000612 -0.030993 
									CHANNELS 3 Zrotation Xrotation Yrotation
									JOINT LeftHandPinky2
									{
										OFFSET 0.028721 0.000000 0.000000 
										CHANNELS 3 Zrotation Xrotation Yrotation
										JOINT LeftHandPinky3
										{
											OFFSET 0.021963 0.000000 0.000000 
											CHANNELS 3 Zrotation Xrotation Yrotation
											End Site
											{
												OFFSET 0.022656 0.000000 0.000000 
											}
										}
									}
								}
							}
						}
					}
				}
				JOINT RightShoulder
				{
					OFFSET -0.047970 0.079586 -0.029634 
					CHANNELS 3 Zrotation Xrotation Yrotation
					JOINT RightArm
					{
						OFFSET -0.096274 -0.008695 -0.014012 
						CHANNELS 3 Zrotation Xrotation Yrotation
						JOINT RightForeArm
						{
							OFFSET -0.216305 0.000000 0.000000 
							CHANNELS 3 Xrotation Zrotation Yrotation
							JOINT RightHand
							{
								OFFSET -0.217764 0.000000 0.000000 
								CHANNELS 3 Zrotation Yrotation Xrotation
								JOINT RightHandThumb1
								{
									OFFSET -0.019670 -0.007318 0.019638 
									CHANNELS 3 Zrotation Xrotation Yrotation
									JOINT RightHandThumb2
									{
										OFFSET -0.025498 -0.008492 0.023179 
										CHANNELS 3 Zrotation Xrotation Yrotation
										JOINT RightHandThumb3
										{
											OFFSET -0.034504 -0.010705 0.016680 
											CHANNELS 3 Zrotation Xrotation Yrotation
											End Site
											{
												OFFSET -0.020312 -0.007813 0.007813 
											}
										}
									}
								}
								JOINT RightHandIndex1
								{
									OFFSET -0.081770 0.003825 0.021187 
									CHANNELS 3 Zrotation Xrotation Yrotation
									JOINT RightHandIndex2
									{
										OFFSET -0.042006 0.000000 0.000000 
										CHANNELS 3 Zrotation Xrotation Yrotation
										JOINT RightHandIndex3
										{
											OFFSET -0.026449 0.000000 0.000000 
											CHANNELS 3 Zrotation Xrotation Yrotation
											End Site
											{
												OFFSET -0.020312 0.000000 0.000000 
											}
										}
									}
								}
								JOINT RightHandMiddle1
								{
									OFFSET -0.084059 0.003825 0.003342 
									CHANNELS 3 Zrotation Xrotation Yrotation
									JOINT RightHandMiddle2
									{
										OFFSET -0.043881 0.000000 0.000000 
										CHANNELS 3 Zrotation Xrotation Yrotation
										JOINT RightHandMiddle3
										{
											OFFSET -0.029191 0.000000 0.000000 
											CHANNELS 3 Zrotation Xrotation Yrotation
											End Site
											{
												OFFSET -0.017969 0.000000 0.000000 
											}
										}
									}
								}
								JOINT RightHandRing1
								{
									OFFSET -0.081798 0.003030 -0.015127 
									CHANNELS 3 Zrotation Xrotation Yrotation
									JOINT RightHandRing2
									{
										OFFSET -0.042198 0.000000 0.000000 
										CHANNELS 3 Zrotation Xrotation Yrotation
										JOINT RightHandRing3
										{
											OFFSET -0.026497 0.000000 0.000000 
											CHANNELS 3 Zrotation Xrotation Yrotation
											End Site
											{
												OFFSET -0.017188 0.000000 0.000000 
											}
										}
									}
								}
								JOINT RightHandPinky1
								{
									OFFSET -0.077902 -0.000930 -0.030891 
									CHANNELS 3 Zrotation Xrotation Yrotation
									JOINT RightHandPinky2
									{
										OFFSET -0.028538 0.000000 0.000000 
										CHANNELS 3 Zrotation Xrotation Yrotation
										JOINT RightHandPinky3
										{
											OFFSET -0.021734 0.000000 0.000000 
											CHANNELS 3 Zrotation Xrotation Yrotation
											End Site
											{
												OFFSET -0.022656 0.000000 0.000000 
											}
										}
									}
								}
							}
						}
					}
				}
			}
		}
	}
	JOINT LeftUpLeg
	{
		OFFSET 0.075264 -0.025573 0.000000 
		CHANNELS 3 Xrotation Yrotation Zrotation
		JOINT LeftLeg
		{
			OFFSET 0.000000 -0.326016 -0.013516 
			CHANNELS 3 Xrotation Yrotation Zrotation
			JOINT LeftFoot
			{
				OFFSET 0.000098 -0.306172 -0.006623 
				CHANNELS 3 Xrotation Yrotation Zrotation
				JOINT LeftToeBase
				{
					OFFSET -0.001432 -0.095259 0.064705 
					CHANNELS 3 Xrotation Yrotation Zrotation
					End Site
					{
						OFFSET 0.000000 0.000000 0.079438 
					}
				}
			}
		}
	}
	JOINT RightUpLeg
	{
		OFFSET -0.075264 -0.025573 0.000000 
		CHANNELS 3 Xrotation Yrotation Zrotation
		JOINT RightLeg
		{
			OFFSET 0.000000 -0.326016 -0.013516 
			CHANNELS 3 Xrotation Yrotation Zrotation
			JOINT RightFoot
			{
				OFFSET 0.000098 -0.306172 -0.006623 
				CHANNELS 3 Xrotation Yrotation Zrotation
				JOINT RightToeBase
				{
					OFFSET -0.001432 -0.095259 0.064705 
					CHANNELS 3 Xrotation Yrotation Zrotation
					End Site
					{
						OFFSET 0.000025 0.000000 0.079438 
					}
				}
			}
		}
	}
}
MOTION
Frames: 6
Frame Time: 0.033333
0.000376 0.736431 0.000018 -80.821800 0.263200 -4.152400 3.537700 6.086400 1.321000 1.638400 14.931200 -1.657400 1.471500 14.880100 -1.955600 3.903100 5.862100 0.534000 -0.000000 0.000000 -0.000000 -12.244200 38.761600 1.611700 -7.563600 3.983000 -3.313800 -54.915298 26.907801 -20.579000 -0.000000 -0.000000 -23.559000 25.078199 -20.904800 17.420799 -8.216700 16.128901 6.409600 8.780800 -7.632600 5.942200 3.840400 -2.070200 6.727200 -6.838800 -0.362400 2.355300 -0.616100 0.024800 0.817500 7.804800 0.020900 0.295500 4.218000 0.254400 -1.870300 -0.357800 0.013800 0.786600 5.622600 -0.018800 -0.201600 -12.224500 -0.840400 8.085400 -0.792400 0.005000 0.338100 6.894700 -0.023300 0.017200 -16.765600 -1.076800 10.783800 -1.449600 -0.008300 -0.180500 12.548900 0.101400 0.871000 16.315300 6.520600 18.292200 64.408501 -9.597300 -8.260000 -0.000000 -0.000000 0.551900 15.053800 -18.320900 32.861500 4.158800 15.072600 -15.869200 -7.102100 -3.295100 -13.547100 -1.768000 1.035000 -6.413800 22.699100 -0.385200 0.191000 14.730500 -0.218600 -1.047100 19.359100 -0.134600 0.849400 35.829700 -2.073000 -3.401600 22.167900 -0.395700 -1.158100 20.095400 -0.106500 -0.470700 45.311600 -2.780700 -8.178700 24.650299 -0.000400 -0.787300 19.371300 0.088800 1.475100 49.929298 -4.773900 -11.643900 32.871101 -0.340400 -0.353400 20.090500 -0.396200 1.828300 -15.930200 2.139300 2.993700 62.457500 9.445100 6.594100 11.097200 8.091200 -2.458200 -0.589600 -0.000000 -0.000000 -14.164100 -5.276200 8.530000 21.952700 -7.592300 -1.109800 -8.272500 -0.503600 -3.773900 -3.078600 -0.000100 -0.000000 
-0.043159 0.742132 0.001509 -81.181702 0.226500 -3.313300 3.649600 6.899000 0.536200 1.771100 15.212200 -1.838300 1.607200 15.162600 -2.134500 4.427800 5.556000 0.535200 -0.000000 0.000000 -0.000000 -12.223600 37.781898 1.498200 -8.271900 4.085100 -3.735800 -59.231300 21.718300 -16.800200 0.000000 0.000000 -17.699900 20.575600 -21.853800 27.065901 -7.571200 15.166100 9.855100 9.277300 -5.980400 3.685000 3.472200 -1.910900 7.559200 -3.855800 -0.205900 2.770400 -1.964100 0.003100 0.814200 6.193600 0.017300 0.291600 6.611500 0.455200 -1.460700 -1.256600 0.001400 0.785200 4.188000 -0.019000 -0.204000 -10.696500 -0.790400 8.704400 -2.455500 0.011500 0.333100 4.775200 -0.003400 0.008500 -15.631100 -1.053000 11.638800 -3.879800 -0.021200 -0.186700 9.922200 0.078200 0.869400 16.363100 6.609200 18.823200 62.885799 -5.024300 -2.404500 -0.000000 -0.000000 1.953800 18.476400 -15.609800 31.652000 4.185800 15.008000 -15.594200 -8.228200 -6.120100 -14.389200 -2.121500 0.851600 -7.707200 18.754900 -0.146000 0.447400 14.389000 -0.212300 -1.041800 19.009501 -0.132400 0.855700 32.741299 -1.892800 -3.384500 21.688499 -0.385200 -1.152600 19.603500 -0.102600 -0.462600 42.675400 -2.647900 -8.467900 24.217699 0.001300 -0.779600 18.899300 0.087200 1.484600 47.530998 -4.571700 -11.601300 32.479801 -0.334700 -0.348400 19.702600 -0.390600 1.834000 -21.392000 0.253600 -0.536000 59.413200 9.277900 6.549500 3.878500 13.594700 -0.256500 -0.320000 0.000000 0.000000 -7.102100 -6.096700 8.112100 16.036699 -5.050300 -0.925400 -9.082500 -0.668600 -4.406600 -3.318500 -0.000000 -0.000000 
-0.087584 0.743364 0.004099 -82.058601 0.320100 -2.498800 3.700100 7.991100 0.017900 1.849500 15.595600 -1.968200 1.688300 15.549100 -2.262100 4.704800 5.265900 0.397500 -0.000000 0.000000 -0.000000 -12.206400 36.997002 1.028100 -9.374200 4.150500 -3.423700 -61.802502 16.244200 -12.692000 -0.000000 0.000000 -14.348800 14.146700 -20.421101 39.033001 -7.184500 14.649800 12.049500 9.688400 -4.708700 2.197700 3.063000 -1.736100 8.471000 -3.124300 -0.168400 2.963400 -4.029700 -0.030100 0.808100 3.781900 0.012200 0.285400 6.971100 0.555800 -1.245800 -2.605500 -0.017000 0.782800 1.951300 -0.019200 -0.207800 -11.192700 -0.830900 8.972500 -4.933100 0.021400 0.326000 1.759600 0.025400 -0.002600 -16.661100 -1.232000 11.961700 -7.325800 -0.039000 -0.196500 6.486200 0.048200 0.865800 16.100800 6.688600 19.891500 60.195400 -0.148000 2.421200 -0.000000 -0.000000 4.529800 22.615400 -12.524700 28.969101 4.223100 14.917500 -15.210400 -9.542400 -7.041100 -14.047200 -2.359400 0.640700 -8.512400 14.701900 0.083400 0.681500 14.004400 -0.205400 -1.035800 18.618799 -0.129900 0.862900 29.737200 -1.717200 -3.516400 21.120001 -0.372700 -1.146000 19.024900 -0.098000 -0.453000 39.940701 -2.509100 -8.803400 23.726200 0.003100 -0.770800 18.378901 0.085300 1.495000 45.000401 -4.360800 -11.585800 32.039799 -0.328300 -0.342700 19.263700 -0.384300 1.840500 -25.665501 -0.693800 -3.325800 52.095699 9.147100 6.583000 -0.275800 17.420799 1.727300 -1.028900 0.093900 -3.540800 -0.223600 -7.387600 7.310800 10.268300 -1.336100 -0.241200 -9.746800 -0.966100 -4.937400 -3.152300 0.000000 -0.000000 
-0.133572 0.739628 0.007237 -83.606499 0.592600 -1.947400 3.684400 9.267800 -0.076400 1.822500 16.025801 -2.029800 1.663200 15.982600 -2.323700 4.643200 5.066500 0.188400 -0.000000 0.000000 -0.000000 -12.300300 36.671001 0.378500 -10.757500 4.122300 -2.128100 -62.737000 12.973100 -7.790300 0.000000 -0.000000 -13.873700 8.322400 -16.412201 49.368500 -7.266700 14.702100 12.701600 9.963900 -4.359800 1.562300 2.783700 -1.618400 9.084900 -4.870900 -0.263100 2.955800 -6.543900 -0.070200 0.799100 0.862900 0.006200 0.277800 5.343300 0.547700 -1.224600 -4.072100 -0.037000 0.779600 -0.647200 -0.019200 -0.212100 -13.813200 -0.970800 8.968600 -7.908400 0.033600 0.318200 -1.810700 0.060100 -0.013800 -19.865200 -1.576900 11.823900 -11.412800 -0.059400 -0.209300 2.516100 0.013700 0.859400 15.552400 6.752900 21.470699 56.164200 5.149100 6.393700 0.000000 -0.000000 8.184500 25.886801 -9.397400 25.586300 4.266800 14.814100 -14.770200 -10.231600 -6.596700 -12.903000 -2.394500 0.437700 -8.695900 12.618700 0.183700 0.815500 13.608300 -0.198200 -1.029500 18.223700 -0.127500 0.870100 28.201799 -1.626800 -3.587600 20.638599 -0.362100 -1.140300 18.544701 -0.094300 -0.445000 38.384701 -2.427600 -8.968500 23.333900 0.004600 -0.763800 17.994101 0.083900 1.502700 43.591999 -4.208700 -11.539600 31.667999 -0.322900 -0.337900 18.891001 -0.379100 1.846000 -29.169901 -0.692500 -4.722400 42.250900 8.595300 6.264100 -2.812400 18.566999 2.455300 1.046400 0.000000 -0.000000 6.169300 -9.131200 6.327600 5.370800 2.721000 0.930200 -10.952400 -0.744800 -5.189400 -2.765200 0.000000 -0.000000 
-0.181385 0.731568 0.010486 -85.546997 1.018600 -1.748000 3.569200 10.563000 0.199600 1.673700 16.432800 -2.026900 1.515900 16.392099 -2.325800 4.326900 4.969500 -0.023200 -0.000000 0.000000 -0.000000 -12.442500 36.730099 -0.203800 -12.031700 3.976600 -0.030000 -63.140400 12.944100 -1.955300 0.000000 0.000000 -15.451300 4.525300 -10.952100 54.647598 -7.687500 15.083500 12.309500 10.080000 -4.832600 1.544100 2.696600 -1.582800 9.272400 -8.319300 -0.448000 2.843400 -9.203200 -0.112200 0.787600 -2.241300 0.000400 0.269300 2.498400 0.470200 -1.331200 -5.419800 -0.055300 0.776300 -3.220400 -0.019100 -0.216400 -17.807199 -1.175800 8.858900 -11.040800 0.047000 0.310500 -5.596400 0.097700 -0.023300 -24.437901 -1.996500 11.462100 -15.737500 -0.079900 -0.224500 -1.709800 -0.022300 0.849900 14.842100 6.786400 23.226801 50.926399 10.200200 9.833600 -0.000000 -0.000000 12.428700 26.998501 -6.377600 22.319700 4.318100 14.696800 -14.268500 -10.077900 -5.918700 -11.414300 -2.266700 0.236500 -8.377000 12.699600 0.144000 0.844700 13.116000 -0.189400 -1.021700 17.734501 -0.124600 0.879100 28.108200 -1.620200 -3.506600 20.155800 -0.351600 -1.134500 18.066500 -0.090700 -0.437000 38.042500 -2.405200 -8.915700 22.922701 0.006000 -0.756400 17.603300 0.082400 1.510500 43.313202 -4.103600 -11.455000 31.198099 -0.316200 -0.331700 18.420500 -0.372400 1.853100 -32.484001 -0.021600 -4.735400 32.561699 7.414400 5.438200 -6.001100 17.058701 0.944400 0.869500 0.000000 0.000000 10.821600 -11.204100 5.197600 3.903800 5.796900 2.194500 -13.461900 0.518100 -5.084900 -3.262100 -0.000000 -0.000000 
-0.230905 0.721091 0.013573 -87.386902 1.458400 -1.780700 3.373800 11.718400 0.576500 1.459000 16.775600 -1.982500 1.302900 16.736099 -2.289800 3.906100 4.925400 -0.147600 -0.000000 0.000000 -0.000000 -12.489300 36.894402 -0.538900 -12.762800 3.746600 2.342300 -64.070297 15.133300 4.383800 0.000000 -0.000000 -17.758499 2.558300 -5.679400 53.563801 -8.100100 15.429500 11.680500 10.058800 -5.472700 1.830700 2.723400 -1.594800 9.211000 -12.068800 -0.647000 2.745700 -11.746600 -0.151700 0.774900 -5.227100 -0.004800 0.260800 -0.500100 0.377100 -1.441200 -6.648800 -0.072000 0.772800 -5.619100 -0.018800 -0.220400 -21.976801 -1.385200 8.748400 -14.036400 0.060100 0.303900 -9.253200 0.134500 -0.030000 -29.138500 -2.397600 11.117000 -19.903601 -0.098400 -0.240600 -5.829500 -0.056700 0.838200 14.228000 6.796600 24.680901 45.180000 13.930800 12.906900 0.000000 -0.000000 16.627199 26.124500 -3.534200 20.065100 4.376900 14.565800 -13.705700 -9.458800 -5.638300 -10.001400 -2.059700 0.016000 -7.872500 13.851500 0.031700 0.837300 12.516700 -0.178800 -1.012100 17.136200 -0.121200 0.890100 28.645300 -1.649800 -3.301500 19.602600 -0.339600 -1.127700 17.514299 -0.086600 -0.427700 38.255501 -2.408500 -8.732600 22.429501 0.007700 -0.747600 17.121599 0.080500 1.520100 43.513199 -4.006500 -11.330400 30.577999 -0.307300 -0.323500 17.800400 -0.363800 1.862400 -35.644600 0.952400 -3.984400 25.379700 5.943000 4.341300 -10.091200 13.849300 -2.553600 -0.064300 -0.000000 -0.000000 14.729200 -13.035000 4.327500 3.706100 7.143500 2.818400 -14.985100 2.512300 -4.525600 -6.174000 0.000000 -0.000000 
